<svg width="80" height="80" viewBox="0 0 80 80" fill="none" xmlns="http://www.w3.org/2000/svg">
<rect width="80" height="80" fill="black"/>
<path d="M40.318 57.7C37.7846 57.7 35.518 57.25 33.518 56.35C31.518 55.45 29.9346 54.1 28.768 52.3C27.6346 50.4667 27.068 48.1833 27.068 45.45V44.4H31.218V45.45C31.218 48.35 32.068 50.5167 33.768 51.95C35.468 53.35 37.6513 54.05 40.318 54.05C43.0513 54.05 45.1346 53.4333 46.568 52.2C48.0013 50.9667 48.718 49.4167 48.718 47.55C48.718 46.25 48.3846 45.2167 47.718 44.45C47.0846 43.6833 46.1846 43.0667 45.018 42.6C43.8513 42.1 42.4846 41.6667 40.918 41.3L38.318 40.65C36.2846 40.1167 34.4846 39.4667 32.918 38.7C31.3513 37.9333 30.118 36.9333 29.218 35.7C28.3513 34.4333 27.918 32.8167 27.918 30.85C27.918 28.8833 28.4013 27.1833 29.368 25.75C30.368 24.3167 31.7513 23.2167 33.518 22.45C35.318 21.6833 37.3846 21.3 39.718 21.3C42.0846 21.3 44.2013 21.7167 46.068 22.55C47.968 23.35 49.4513 24.55 50.518 26.15C51.618 27.7167 52.168 29.7 52.168 32.1V34.2H48.018V32.1C48.018 30.4 47.6513 29.0333 46.918 28C46.218 26.9667 45.2346 26.2 43.968 25.7C42.7346 25.2 41.318 24.95 39.718 24.95C37.418 24.95 35.568 25.4667 34.168 26.5C32.768 27.5 32.068 28.9333 32.068 30.8C32.068 32.0333 32.368 33.0333 32.968 33.8C33.568 34.5667 34.418 35.2 35.518 35.7C36.618 36.1667 37.9346 36.5833 39.468 36.95L42.068 37.6C44.1013 38.0333 45.918 38.6333 47.518 39.4C49.1513 40.1333 50.4513 41.15 51.418 42.45C52.3846 43.7167 52.868 45.3833 52.868 47.45C52.868 49.5167 52.3513 51.3167 51.318 52.85C50.2846 54.3833 48.818 55.5833 46.918 56.45C45.0513 57.2833 42.8513 57.7 40.318 57.7Z" fill="white"/>
</svg>
